Coordinates
version=1
nRows=31
nColumns=38
inDegrees=no

Units are S.I. units (second, meters, Newtons, ...)
If the header above contains a line with 'inDegrees', this indicates whether rotational values are in degrees (yes) or radians (no).

endheader
time	pelvis_tilt	pelvis_list	pelvis_rotation	pelvis_tx	pelvis_ty	pelvis_tz	hip_flexion_r	hip_adduction_r	hip_rotation_r	knee_angle_r	ankle_angle_r	subtalar_angle_r	mtp_angle_r	hip_flexion_l	hip_adduction_l	hip_rotation_l	knee_angle_l	ankle_angle_l	subtalar_angle_l	mtp_angle_l	lumbar_extension	lumbar_bending	lumbar_rotation	arm_flex_r	arm_add_r	arm_rot_r	elbow_flex_r	pro_sup_r	wrist_flex_r	wrist_dev_r	arm_flex_l	arm_add_l	arm_rot_l	elbow_flex_l	pro_sup_l	wrist_flex_l	wrist_dev_l
0.58	-2.78753	1.2499	1.35065	0.726334	1.28405	1.01077	0.653751	0.0468771	-0.125799	0.27512	-0.207473	0	0	0.151466	-0.16437	-0.0476629	0.763788	-0.361468	0	0	0.259115	0.135366	-0.150105	-0.114812	-0.199152	0.28133	0.27743	1.5708	0	0	-0.0658417	-0.318226	0.2937	0.848149	1.39319	0	0
0.59	-2.77058	1.24763	1.34091	0.725634	1.27091	1.0115	0.646656	0.0512855	-0.130899	0.287988	-0.185722	0	0	0.18191	-0.170624	-0.0261793	0.822595	-0.401726	0	0	0.259911	0.141658	-0.155349	-0.115354	-0.204866	0.293439	0.290018	1.5708	0	0	-0.0777727	-0.315907	0.288556	0.85713	1.39384	0	0
0.6	-2.75171	1.24686	1.33106	0.725208	1.25799	1.01228	0.636175	0.0548104	-0.139455	0.298194	-0.168166	0	0	0.211258	-0.17557	-0.0032841	0.877409	-0.437814	0	0	0.258847	0.147183	-0.160383	-0.11542	-0.209928	0.301171	0.302343	1.5708	0	0	-0.0865864	-0.314587	0.288629	0.864293	1.39239	0	0
0.61	-2.73611	1.24605	1.32537	0.724925	1.24521	1.01315	0.624519	0.0568183	-0.149158	0.305523	-0.150743	0	0	0.240699	-0.177757	0.0206579	0.926605	-0.471825	0	0	0.258759	0.15067	-0.164251	-0.116174	-0.214154	0.305691	0.314273	1.5708	0	0	-0.0930662	-0.313682	0.292724	0.868485	1.38758	0	0
0.62	-2.72417	1.24548	1.32291	0.724622	1.23253	1.01427	0.611788	0.0580435	-0.159261	0.309926	-0.135293	0	0	0.269005	-0.177437	0.0441647	0.970058	-0.489925	0	0	0.259137	0.152422	-0.165829	-0.116721	-0.216872	0.306431	0.324	1.5708	0	0	-0.0968057	-0.313312	0.301281	0.86869	1.3801	0	0
0.63	-2.71628	1.24519	1.32318	0.724252	1.21995	1.01572	0.59857	0.0586807	-0.170433	0.312557	-0.122608	0	0	0.295686	-0.175243	0.0650215	1.00795	-0.486133	0	0	0.259676	0.152881	-0.165033	-0.116228	-0.217946	0.301902	0.330755	1.5708	0	0	-0.0980543	-0.313386	0.314175	0.864824	1.37186	0	0
0.64	-2.71176	1.24526	1.32473	0.723727	1.20743	1.01745	0.584676	0.059929	-0.179623	0.31307	-0.110271	0	0	0.320392	-0.171749	0.0822801	1.04119	-0.45885	0	0	0.259612	0.152682	-0.160908	-0.115552	-0.217926	0.292184	0.336539	1.5708	0	0	-0.0965093	-0.31484	0.333994	0.858139	1.35877	0	0
0.65	-2.71147	1.24627	1.32781	0.72297	1.19494	1.01942	0.569715	0.0618519	-0.185239	0.311339	-0.10231	0	0	0.342707	-0.167097	0.0938864	1.07004	-0.419399	0	0	0.258637	0.15129	-0.154018	-0.113702	-0.217243	0.283596	0.340511	1.5708	0	0	-0.0946017	-0.315995	0.353453	0.849769	1.34699	0	0
0.66	-2.71626	1.24783	1.33358	0.722101	1.18252	1.02154	0.554475	0.0636519	-0.187261	0.308432	-0.0962231	0	0	0.363369	-0.160853	0.100605	1.09455	-0.37272	0	0	0.257404	0.148452	-0.144804	-0.11131	-0.216212	0.27434	0.343752	1.5708	0	0	-0.0927533	-0.316975	0.372449	0.84022	1.33673	0	0
0.67	-2.72291	1.25105	1.33969	0.721175	1.1701	1.02388	0.537494	0.0652667	-0.188535	0.304831	-0.0914981	0	0	0.381234	-0.154469	0.102547	1.11373	-0.323717	0	0	0.25436	0.144725	-0.134282	-0.108379	-0.215009	0.263824	0.347108	1.5708	0	0	-0.0911071	-0.317809	0.390149	0.830023	1.32802	0	0
0.68	-2.7299	1.25616	1.34556	0.72027	1.15783	1.02643	0.51817	0.0668158	-0.189933	0.300241	-0.087814	0	0	0.396444	-0.148132	0.101227	1.1275	-0.276125	0	0	0.248529	0.140446	-0.123551	-0.104601	-0.21408	0.253256	0.351524	1.5708	0	0	-0.0894289	-0.318719	0.406406	0.82007	1.32157	0	0
0.69	-2.73718	1.26234	1.3516	0.719359	1.1458	1.02909	0.49743	0.0681835	-0.191924	0.294534	-0.0854517	0	0	0.410131	-0.14178	0.0989578	1.13618	-0.234965	0	0	0.240927	0.135664	-0.113879	-0.0997879	-0.213616	0.244835	0.357166	1.5708	0	0	-0.0887128	-0.319376	0.418658	0.810485	1.3186	0	0
0.7	-2.74443	1.26994	1.35715	0.71844	1.13364	1.03187	0.474765	0.0691405	-0.191592	0.289056	-0.0832321	0	0	0.421041	-0.136319	0.093928	1.13845	-0.197882	0	0	0.231955	0.130438	-0.104444	-0.0952279	-0.213615	0.239469	0.363951	1.5708	0	0	-0.0888875	-0.319971	0.428925	0.80068	1.31662	0	0
0.71	-2.75724	1.27579	1.36563	0.717547	1.12124	1.03451	0.453645	0.0696765	-0.18947	0.283048	-0.0817989	0	0	0.43199	-0.131124	0.0849852	1.13334	-0.168354	0	0	0.226561	0.124481	-0.0936431	-0.0922766	-0.214537	0.237619	0.37156	1.5708	0	0	-0.0913636	-0.319767	0.437333	0.790052	1.31466	0	0
0.72	-2.769	1.28161	1.373	0.716693	1.10895	1.03711	0.432048	0.0702996	-0.189653	0.275522	-0.081998	0	0	0.441982	-0.126365	0.0777671	1.12239	-0.147426	0	0	0.22148	0.118825	-0.0840733	-0.0890322	-0.215683	0.236366	0.379815	1.5708	0	0	-0.0949862	-0.318936	0.443077	0.778994	1.31263	0	0
0.73	-2.77749	1.28784	1.37793	0.715995	1.09692	1.03971	0.409675	0.0710015	-0.192575	0.266731	-0.0837784	0	0	0.451192	-0.12279	0.0710153	1.10649	-0.129774	0	0	0.215182	0.114102	-0.0757163	-0.085571	-0.217436	0.23535	0.389642	1.5708	0	0	-0.0979529	-0.317373	0.448077	0.767052	1.30956	0	0
0.74	-2.78342	1.29407	1.38083	0.715443	1.08509	1.04225	0.387312	0.0717205	-0.197692	0.257667	-0.0875096	0	0	0.459938	-0.120944	0.0624212	1.08553	-0.114442	0	0	0.208235	0.110354	-0.067853	-0.0824545	-0.219941	0.234275	0.4013	1.5708	0	0	-0.0999124	-0.314881	0.452906	0.753463	1.30461	0	0
0.75	-2.7886	1.2981	1.38421	0.715017	1.0733	1.04454	0.367084	0.0724068	-0.20449	0.248118	-0.092622	0	0	0.470642	-0.120118	0.0531471	1.06001	-0.103571	0	0	0.204322	0.106966	-0.0618189	-0.0803664	-0.222481	0.232463	0.413845	1.5708	0	0	-0.102459	-0.311617	0.456762	0.738068	1.29884	0	0
0.76	-2.7908	1.30184	1.38493	0.714611	1.06142	1.04671	0.346943	0.073841	-0.210573	0.238892	-0.0981068	0	0	0.480273	-0.120691	0.0430749	1.02955	-0.0955759	0	0	0.201001	0.104265	-0.0563961	-0.0792911	-0.224928	0.228893	0.427652	1.5708	0	0	-0.105202	-0.308283	0.460979	0.722001	1.29109	0	0
0.77	-2.79135	1.30549	1.38341	0.714229	1.0496	1.04874	0.32694	0.0758245	-0.215524	0.229841	-0.10354	0	0	0.488507	-0.122172	0.0315425	0.994372	-0.0900686	0	0	0.197451	0.102232	-0.0503305	-0.0781265	-0.22747	0.225576	0.44139	1.5708	0	0	-0.107473	-0.304985	0.46628	0.705768	1.27993	0	0
0.78	-2.79085	1.30862	1.37987	0.71383	1.03792	1.05056	0.307871	0.0783237	-0.219842	0.221188	-0.109415	0	0	0.495951	-0.124634	0.0184871	0.955056	-0.0866574	0	0	0.194045	0.100884	-0.0433834	-0.0765837	-0.230125	0.222571	0.454829	1.5708	0	0	-0.108722	-0.300979	0.472372	0.688082	1.26621	0	0
0.79	-2.79288	1.3091	1.37701	0.713315	1.02621	1.05199	0.292096	0.0809503	-0.223857	0.213137	-0.115931	0	0	0.504575	-0.128352	0.00184189	0.911228	-0.0853474	0	0	0.194146	0.0996291	-0.0348834	-0.0759372	-0.232673	0.219537	0.468102	1.5708	0	0	-0.110021	-0.296419	0.479725	0.668652	1.25187	0	0
0.8	-2.79747	1.30801	1.37595	0.71283	1.01431	1.05307	0.277975	0.0832365	-0.226076	0.205335	-0.122249	0	0	0.513046	-0.132866	-0.0192828	0.86252	-0.087146	0	0	0.196896	0.0980584	-0.026035	-0.0762812	-0.234907	0.215136	0.481083	1.5708	0	0	-0.112212	-0.292032	0.48812	0.648957	1.23702	0	0
0.81	-2.79719	1.31079	1.3708	0.712455	1.00269	1.05425	0.259826	0.0855695	-0.228118	0.197787	-0.128286	0	0	0.516392	-0.137596	-0.0416803	0.810171	-0.0925962	0	0	0.193498	0.0968985	-0.0179883	-0.0748601	-0.237376	0.210129	0.494928	1.5708	0	0	-0.112558	-0.287841	0.496995	0.629845	1.22207	0	0
0.82	-2.79422	1.31795	1.36118	0.712031	0.991293	1.05554	0.237366	0.0880282	-0.227773	0.190874	-0.133868	0	0	0.513252	-0.142429	-0.066365	0.75427	-0.102205	0	0	0.183021	0.0960452	-0.0078167	-0.071983	-0.240083	0.203047	0.510093	1.5708	0	0	-0.11007	-0.283461	0.507675	0.610487	1.20474	0	0
0.83	-2.7932	1.32294	1.35332	0.711693	0.97971	1.05639	0.217291	0.0901547	-0.227821	0.184383	-0.138183	0	0	0.510847	-0.146267	-0.0904438	0.695074	-0.113914	0	0	0.175895	0.0950217	0.00178333	-0.0697776	-0.242364	0.194936	0.524274	1.5708	0	0	-0.10913	-0.279226	0.518146	0.591815	1.18884	0	0
0.84	-2.79307	1.32543	1.34652	0.711354	0.968029	1.05677	0.200101	0.0923379	-0.228019	0.178803	-0.14112	0	0	0.509834	-0.149269	-0.112833	0.633149	-0.126628	0	0	0.172289	0.0939468	0.0102712	-0.067762	-0.244661	0.189749	0.537137	1.5708	0	0	-0.110356	-0.275141	0.525946	0.574507	1.17517	0	0
0.85	-2.79288	1.32713	1.33949	0.711022	0.956384	1.05684	0.183976	0.0946197	-0.227311	0.173611	-0.143711	0	0	0.508397	-0.151377	-0.133918	0.568805	-0.142377	0	0	0.16931	0.0930039	0.0185337	-0.0656709	-0.247391	0.186627	0.549944	1.5708	0	0	-0.112008	-0.271435	0.533506	0.558414	1.16119	0	0
0.86	-2.79294	1.32836	1.33286	0.710783	0.944729	1.0566	0.168682	0.096633	-0.227096	0.169333	-0.145261	0	0	0.5064	-0.152256	-0.153355	0.50258	-0.159728	0	0	0.166907	0.0921505	0.0259745	-0.0633226	-0.25001	0.182775	0.562198	1.5708	0	0	-0.114056	-0.267671	0.54061	0.543182	1.14651	0	0
0.87	-2.79291	1.32926	1.32624	0.710635	0.933046	1.05604	0.153797	0.098493	-0.226723	0.165551	-0.145609	0	0	0.503818	-0.151653	-0.170227	0.434665	-0.177778	0	0	0.164814	0.0913835	0.0330419	-0.0610541	-0.252283	0.177052	0.574152	1.5708	0	0	-0.116188	-0.264205	0.548188	0.528773	1.13245	0	0
0.88	-2.79046	1.33029	1.31692	0.710461	0.921403	1.05521	0.138977	0.100817	-0.22475	0.16283	-0.144482	0	0	0.499942	-0.150272	-0.181	0.366049	-0.194913	0	0	0.161943	0.0911573	0.0402761	-0.0580844	-0.254801	0.173257	0.585056	1.5708	0	0	-0.117897	-0.261047	0.556474	0.515422	1.11858	0	0
